<svg xmlns="http://www.w3.org/2000/svg" width="264.002" height="20">
    <path d="M-11632-1033h-264v-20h264v20zm-5.622-18.889a2.343 2.343 0 0 0-2.341 2.341v13.1a2.343 2.343 0 0 0 2.341 2.341 2.343 2.343 0 0 0 2.341-2.341v-13.1a2.343 2.343 0 0 0-2.34-2.34zm-9 0a2.343 2.343 0 0 0-2.341 2.341v13.1a2.343 2.343 0 0 0 2.341 2.341 2.345 2.345 0 0 0 2.344-2.341v-13.1a2.345 2.345 0 0 0-2.344-2.34zm-9 0a2.345 2.345 0 0 0-2.344 2.341v13.1a2.345 2.345 0 0 0 2.344 2.341 2.343 2.343 0 0 0 2.34-2.341v-13.1a2.343 2.343 0 0 0-2.338-2.34zm-9 0a2.343 2.343 0 0 0-2.341 2.341v13.1a2.343 2.343 0 0 0 2.341 2.341 2.345 2.345 0 0 0 2.344-2.341v-13.1a2.345 2.345 0 0 0-2.344-2.34zm-9 0a2.345 2.345 0 0 0-2.344 2.341v13.1a2.345 2.345 0 0 0 2.344 2.341 2.343 2.343 0 0 0 2.341-2.341v-13.1a2.343 2.343 0 0 0-2.339-2.34zm-9 0a2.343 2.343 0 0 0-2.341 2.341v13.1a2.343 2.343 0 0 0 2.341 2.341 2.343 2.343 0 0 0 2.34-2.341v-13.1a2.343 2.343 0 0 0-2.339-2.34zm-9 0a2.344 2.344 0 0 0-2.343 2.341v13.1a2.344 2.344 0 0 0 2.343 2.341 2.343 2.343 0 0 0 2.341-2.341v-13.1a2.343 2.343 0 0 0-2.339-2.34zm-9 0a2.343 2.343 0 0 0-2.341 2.341v13.1a2.343 2.343 0 0 0 2.341 2.341 2.343 2.343 0 0 0 2.341-2.341v-13.1a2.343 2.343 0 0 0-2.34-2.34zm-9 0a2.343 2.343 0 0 0-2.341 2.341v13.1a2.343 2.343 0 0 0 2.341 2.341 2.345 2.345 0 0 0 2.344-2.341v-13.1a2.345 2.345 0 0 0-2.344-2.34zm-9 0a2.345 2.345 0 0 0-2.344 2.341v13.1a2.345 2.345 0 0 0 2.344 2.341 2.343 2.343 0 0 0 2.34-2.341v-13.1a2.343 2.343 0 0 0-2.338-2.34zm-9 0a2.343 2.343 0 0 0-2.341 2.341v13.1a2.343 2.343 0 0 0 2.341 2.341 2.345 2.345 0 0 0 2.344-2.341v-13.1a2.345 2.345 0 0 0-2.344-2.34zm-9 0a2.345 2.345 0 0 0-2.344 2.341v13.1a2.345 2.345 0 0 0 2.344 2.341 2.343 2.343 0 0 0 2.341-2.341v-13.1a2.343 2.343 0 0 0-2.339-2.34zm-9 0a2.343 2.343 0 0 0-2.341 2.341v13.1a2.343 2.343 0 0 0 2.341 2.341 2.344 2.344 0 0 0 2.343-2.341v-13.1a2.344 2.344 0 0 0-2.342-2.34zm-9 0a2.345 2.345 0 0 0-2.344 2.341v13.1a2.345 2.345 0 0 0 2.344 2.341 2.343 2.343 0 0 0 2.341-2.341v-13.1a2.343 2.343 0 0 0-2.339-2.34zm-9 0a2.343 2.343 0 0 0-2.341 2.341v13.1a2.343 2.343 0 0 0 2.341 2.341 2.343 2.343 0 0 0 2.341-2.341v-13.1a2.343 2.343 0 0 0-2.34-2.34zm-9 0a2.343 2.343 0 0 0-2.341 2.341v13.1a2.343 2.343 0 0 0 2.341 2.341 2.345 2.345 0 0 0 2.344-2.341v-13.1a2.345 2.345 0 0 0-2.344-2.34zm-9 0a2.344 2.344 0 0 0-2.343 2.341v13.1a2.344 2.344 0 0 0 2.343 2.341 2.343 2.343 0 0 0 2.341-2.341v-13.1a2.343 2.343 0 0 0-2.34-2.34zm-9 0a2.343 2.343 0 0 0-2.341 2.341v13.1a2.343 2.343 0 0 0 2.341 2.341 2.345 2.345 0 0 0 2.344-2.341v-13.1a2.345 2.345 0 0 0-2.344-2.34zm-9 0a2.345 2.345 0 0 0-2.344 2.341v13.1a2.345 2.345 0 0 0 2.344 2.341 2.343 2.343 0 0 0 2.341-2.341v-13.1a2.343 2.343 0 0 0-2.339-2.34zm-9 0a2.343 2.343 0 0 0-2.341 2.341v13.1a2.343 2.343 0 0 0 2.341 2.341 2.344 2.344 0 0 0 2.343-2.341v-13.1a2.344 2.344 0 0 0-2.342-2.34zm-9 0a2.345 2.345 0 0 0-2.344 2.341v13.1a2.345 2.345 0 0 0 2.344 2.341 2.343 2.343 0 0 0 2.341-2.341v-13.1a2.343 2.343 0 0 0-2.339-2.34zm-9 0a2.343 2.343 0 0 0-2.341 2.341v13.1a2.343 2.343 0 0 0 2.341 2.341 2.343 2.343 0 0 0 2.341-2.341v-13.1a2.343 2.343 0 0 0-2.34-2.34zm-9 0a2.343 2.343 0 0 0-2.341 2.341v13.1a2.343 2.343 0 0 0 2.341 2.341 2.344 2.344 0 0 0 2.343-2.341v-13.1a2.344 2.344 0 0 0-2.343-2.34zm-9 0a2.345 2.345 0 0 0-2.344 2.341v13.1a2.345 2.345 0 0 0 2.344 2.341 2.343 2.343 0 0 0 2.341-2.341v-13.1a2.343 2.343 0 0 0-2.34-2.34zm-9 0a2.343 2.343 0 0 0-2.341 2.341v13.1a2.343 2.343 0 0 0 2.341 2.341 2.345 2.345 0 0 0 2.344-2.341v-13.1a2.345 2.345 0 0 0-2.344-2.34zm-9 0a2.345 2.345 0 0 0-2.344 2.341v13.1a2.345 2.345 0 0 0 2.344 2.341 2.343 2.343 0 0 0 2.341-2.341v-13.1a2.343 2.343 0 0 0-2.339-2.34zm-9 0a2.343 2.343 0 0 0-2.34 2.341v13.1a2.343 2.343 0 0 0 2.34 2.341 2.345 2.345 0 0 0 2.344-2.341v-13.1a2.345 2.345 0 0 0-2.344-2.34zm-9 0a2.345 2.345 0 0 0-2.344 2.341v13.1a2.345 2.345 0 0 0 2.344 2.341 2.343 2.343 0 0 0 2.341-2.341v-13.1a2.343 2.343 0 0 0-2.339-2.34zm-9 0a2.343 2.343 0 0 0-2.341 2.341v13.1a2.343 2.343 0 0 0 2.341 2.341 2.343 2.343 0 0 0 2.341-2.341v-13.1a2.343 2.343 0 0 0-2.34-2.34z" transform="translate(11896.001 1052.999)" style="fill:#eee"/>
</svg>
